<svg xmlns="http://www.w3.org/2000/svg" viewBox="0 0 1467.43 469.16"><defs><style>.cls-1{fill:#fff;}</style></defs><g id="katman_2" data-name="katman 2"><g id="katman_1-2" data-name="katman 1"><path class="cls-1" d="M749.14,46.28a18.2,18.2,0,0,1,6.16,14.33V225.68q0,9.16-5.87,14.75T733.81,246q-9.75,0-15.62-5.59t-5.87-14.75v-2.3a44,44,0,0,1-17.91,17.05,55,55,0,0,1-26.22,6.17A57.4,57.4,0,0,1,636,237.28q-14.19-9.3-22.07-26.08T606,172.66q0-21.78,7.88-38.26T635.8,109q14-8.88,32.39-8.88a55.51,55.51,0,0,1,25.93,6A43.15,43.15,0,0,1,712,123.08V59.75q0-8.59,5.73-13.76T733,40.83Q743,40.83,749.14,46.28Zm-45,156.9q8.18-10.45,8.17-30t-8.17-29.8q-8.16-10.32-23.36-10.32T657.3,143.29Q649,153.46,649,172.66q0,19.49,8.32,30.23t23.49,10.75Q696,213.64,704.15,203.18Z" transform="translate(0 -40.83)"/><path class="cls-1" d="M918.22,106.17q5.87,5.46,5.87,14.91V226.25a18.2,18.2,0,0,1-6.16,14.33Q911.77,246,902,246q-9.18,0-14.62-5.16T882,227.11v-2.87a44.52,44.52,0,0,1-17.34,16.62,50.66,50.66,0,0,1-24.22,5.74q-26.64,0-39.69-14.76t-13-44.57V121.08q0-9.47,5.88-14.91t15.9-5.44q10,0,15.77,5.44T831,121.08v67.05q0,12.62,5.3,18.63t16.19,6q12.62,0,20.49-8.6t7.88-22.64V121.08q0-9.47,5.73-14.91t15.76-5.44Q912.35,100.73,918.22,106.17Z" transform="translate(0 -40.83)"/><path class="cls-1" d="M750.58,318.13q5.86,5.6,5.87,14.76v108q0,34.1-19.77,51.58T678.79,510q-32.1,0-52.73-11.46a23.19,23.19,0,0,1-8-7,16,16,0,0,1-2.86-9.31q0-7.17,3.44-11.75a10.87,10.87,0,0,1,9.17-4.59,26.54,26.54,0,0,1,7.45,1.29q4.29,1.29,8.88,3A172.24,172.24,0,0,0,661,475.61a66.4,66.4,0,0,0,16.62,2q18.35,0,27.23-8.31t8.88-25.22V428.61a42.49,42.49,0,0,1-18,17.19,57.12,57.12,0,0,1-26.94,6.31q-18.35,0-32.53-8.6A58.94,58.94,0,0,1,614,419q-8-15.92-8-36.83t8-36.82a59.91,59.91,0,0,1,22.21-24.65Q650.42,312,668.76,312a56.87,56.87,0,0,1,26.51,6.16,43.75,43.75,0,0,1,18.19,17.05v-2.86q0-9.17,5.88-14.47T735,312.54Q744.7,312.54,750.58,318.13ZM705,409.41q8.44-9.75,8.45-27.23T705,354.81q-8.46-9.88-23.64-9.88t-23.79,9.88q-8.6,9.9-8.6,27.37t8.6,27.23q8.59,9.73,23.79,9.74T705,409.41Z" transform="translate(0 -40.83)"/><path class="cls-1" d="M898.88,327q14.89,15,14.9,46v64.77q0,9.45-5.45,14.76t-15.19,5.3q-9.17,0-14.76-5.59t-5.58-14.47v-2a33.78,33.78,0,0,1-14.33,16.62q-10,6-23.5,6A57.79,57.79,0,0,1,809,452.68a45.45,45.45,0,0,1-18.34-16.05A41,41,0,0,1,784,413.71q0-15.48,7.88-24.36t25.36-12.9q17.47-4,47.86-4h7.45v-5.16q0-12-5.3-17.48t-17.63-5.45q-12.32,0-35.53,8.6c-4.4,2.11-8.12,3.15-11.18,3.15a12.39,12.39,0,0,1-10-4.44q-3.72-4.44-3.72-11.6a16.24,16.24,0,0,1,2.58-9.46,23.88,23.88,0,0,1,8.31-6.88,93,93,0,0,1,24.5-8.6A133.72,133.72,0,0,1,853,312Q884,312,898.88,327Zm-34.11,93.13q7.74-8.44,7.74-21.92v-4.87h-4.87q-23.22,0-32.53,3.72t-9.31,13.47a17.11,17.11,0,0,0,5.3,13,18.59,18.59,0,0,0,13.33,5Q857,428.61,864.77,420.15Z" transform="translate(0 -40.83)"/><path class="cls-1" d="M1154.78,325.87q12.33,13.9,12.33,45.42v66.2q0,10-6,15.19t-15.48,5.16a23.62,23.62,0,0,1-15.47-5.16q-6.32-5.16-6.31-15.19V370.72q0-13.75-4.73-19.34t-14.47-5.59q-12,0-19.2,8.31t-7.16,23.21v60.18q0,10-6,15.19t-15.48,5.16a23.62,23.62,0,0,1-15.47-5.16q-6.32-5.16-6.31-15.19V370.72q0-13.75-4.72-19.34t-14.48-5.59q-12,0-19.2,8.31t-7.16,23.21v60.18q0,10-6.16,15.19t-15.33,5.16a23.63,23.63,0,0,1-15.48-5.16q-6.3-5.16-6.3-15.19V332.32q0-9.46,6.44-14.62a24.23,24.23,0,0,1,15.62-5.16,21,21,0,0,1,14.33,5q5.73,5,5.73,13.9v2.86a46.21,46.21,0,0,1,17.91-16.62,53.64,53.64,0,0,1,25.08-5.73q15.18,0,25.65,6.16t16.19,19.92A48.7,48.7,0,0,1,1091.88,319a54.37,54.37,0,0,1,27.65-7Q1142.46,312,1154.78,325.87Z" transform="translate(0 -40.83)"/><path class="cls-1" d="M1322,418.86q3.57,4.59,3.58,11.75a15.59,15.59,0,0,1-2.87,9,23.16,23.16,0,0,1-8,7,102.79,102.79,0,0,1-22.64,8.46,96.94,96.94,0,0,1-23.79,3.29q-22.92,0-40-8.88a62.17,62.17,0,0,1-26.22-25.36q-9.18-16.49-9.17-38.84,0-21.48,8.88-38.11a65.1,65.1,0,0,1,24.65-25.93q15.75-9.32,35.82-9.32,19.18,0,33.67,8.46a57.81,57.81,0,0,1,22.5,24.07q8,15.62,8,36.54,0,6.3-3,9.6c-2,2.19-4.83,3.29-8.45,3.29h-80.24q2,16.92,10.31,24.5t23.79,7.6a51.06,51.06,0,0,0,14.9-2,143.18,143.18,0,0,0,14.62-5.44q4-1.72,7.73-3a20.47,20.47,0,0,1,6.59-1.29A11.3,11.3,0,0,1,1322,418.86Zm-78.38-69.2q-7.45,7.88-8.88,22.78h55.31q-.87-15.19-7.6-22.93t-19.06-7.74Q1251.08,341.77,1243.62,349.66Z" transform="translate(0 -40.83)"/><path class="cls-1" d="M1375.44,455.55a68.71,68.71,0,0,1-22.64-9.17,17.62,17.62,0,0,1-6.59-6.88,20.37,20.37,0,0,1-2.29-9.75,16.62,16.62,0,0,1,3.72-11,11.52,11.52,0,0,1,9.17-4.44,22.64,22.64,0,0,1,7.45,1.29c2.49.86,5.06,1.86,7.74,3a103.24,103.24,0,0,0,15.76,5.87,72.63,72.63,0,0,0,19.2,2.15q10,0,15.62-3.15t5.59-8.6a8.72,8.72,0,0,0-2.44-6.45q-2.43-2.43-9-4.44t-20.92-4.87q-25.51-4.87-36.68-14.61t-11.18-27.23a37.23,37.23,0,0,1,7.88-23.21q7.88-10.32,21.64-16.19a78,78,0,0,1,31-5.88,92.61,92.61,0,0,1,24.07,3.15,77.15,77.15,0,0,1,20.92,8.89q8.88,5.44,8.88,16.05a17.59,17.59,0,0,1-3.72,11.46,11.4,11.4,0,0,1-9.17,4.58q-6.6,0-15.76-5.15a84,84,0,0,0-13-5.59,46.3,46.3,0,0,0-13.9-1.87c-5.93,0-10.61,1.11-14,3.3a10.22,10.22,0,0,0-5.16,9q0,6,6,9.17t23.21,6.3q19.2,3.73,30.09,9t15.76,13.33q4.88,8,4.87,20.34,0,20.36-16.76,32.39t-44.85,12A142.18,142.18,0,0,1,1375.44,455.55Z" transform="translate(0 -40.83)"/><path class="cls-1" d="M20,74.28S280.11,258.86,318,343.06,182.14,482.52,182.14,482.52l234.77-29.33s147.76-19.33,93.46-116.82S290.5,137.29,290.5,137.29Z" transform="translate(0 -40.83)"/><path class="cls-1" d="M141.93,336.36l-22.75-25.19c1.87-1.13,3.47-2.12,5.1-3.07,10.88-6.33,16.24-18.2,13.59-30.08a27.29,27.29,0,0,0-24.24-21.4c-12.07-1.23-22.91,5.69-28.28,17.15a15,15,0,0,1-7.52,7.11c-14.44,5.25-29.07,10-43.72,14.63C21,299.65,8.83,295,3.05,284.08S-.22,260,10.66,251.88c28.45-21.11,57.89-40.71,91.18-53.59,8.31-3.21,17-6,25.82-7.08,5.29-.65,11.85,1.15,16.4,4.07,12.79,8.24,16.64,21.92,18.81,36.05.19,1.28-1.39,3.14-2.58,4.27-4.45,4.25-9.21,8.18-13.63,12.45-5.57,5.39-6,10.5-1,16.17q22.48,25.29,45.36,50.27c5.21,5.7,10.28,5.89,16.12.91,5.66-4.81,11.06-9.91,16.33-14.67,12.67,3.54,24.78,6.36,33.05,17.88,5.61,7.8,8.09,15,5.14,24.18-7.79,24.32-21.6,45.28-36.82,65.31C214.33,422,203,435.2,191.57,448.39c-10,11.64-23,13.82-34.19,6.46s-14.14-20.08-7.95-34.08c6.11-13.83,12.2-27.67,18.69-41.32a11.63,11.63,0,0,1,6.36-5.41c12.85-4.1,20.82-13.7,21.08-26.2a27.07,27.07,0,0,0-19.1-26.8c-12-3.81-23.83.5-31.57,11.43C144,333.67,143.11,334.81,141.93,336.36Zm104.35,4.13c3.58-4.33,4.1-8.82,0-12.95s-8.86-4.07-12.84-.18-4.12,8.93-.21,12.92S241.89,344,246.28,340.49ZM210.1,325.54c-4,4.12-4.71,8.79-1.09,13s8.62,4.66,12.89,1,4.71-8.38,1-12.8S214.64,322.52,210.1,325.54Zm35,38.87c3.35-4.08,4.14-8.56.18-12.81s-8.7-4.33-12.84-.56-4.35,8.83-.56,12.9S240.4,368,245.12,364.41Zm-36.41-14.9c-3.82,4-4.6,8.72-1,13s8.6,4.72,12.88,1,4.86-8.32,1-12.8S213.39,346.38,208.71,349.51ZM135.92,211.16c-2.77-3.17-5.27-6.75-9.7-1.84-3.7,4.12-8,8.91-3.53,13.74,4,4.36,9.23,1.05,13.55-2.09C141.25,217.33,139.2,214.28,135.92,211.16Zm-2.81,31.46c3.59-3.51,8-5.84,3-10.44-4-3.73-9.09-8.19-13.85-4s-1,9.59,2.34,14.05S130.92,245,133.11,242.62ZM115,208.82c-2.34-3.83-5.33-4-8.36-.52-2.45,2.84-8.67,4.58-3.49,10.08,3.78,4,8.77,8.47,13.7,4.7C122,219.1,118.44,213.48,115,208.82Zm-11.41,31c2.78,3.13,5.34,6.7,9.75,1.82,3.74-4.14,7.9-9.24,3.46-13.85s-9.74-.68-14.14,2.74C97.77,234.36,101,237,103.58,239.86Z" transform="translate(0 -40.83)"/><path class="cls-1" d="M219.49,295c-5.64,5.09-10.86,9.61-15.85,14.38-3.26,3.11-5.59,2.26-8.29-.76q-21.51-24-43.23-47.88c-2.75-3-3.29-5.42.12-8.33,5.25-4.48,10.28-9.21,15.9-14.29Z" transform="translate(0 -40.83)"/><path class="cls-1" d="M96.08,297.65a20.3,20.3,0,0,1,1.31-28.92,20.47,20.47,0,1,1-1.31,28.92Z" transform="translate(0 -40.83)"/><path class="cls-1" d="M153.18,360.92a20.34,20.34,0,1,1,28.9,1.17A20.23,20.23,0,0,1,153.18,360.92Z" transform="translate(0 -40.83)"/></g></g></svg>